<?xml version="1.0" encoding="UTF-8"?>
<svg width="40px" height="38px" viewBox="0 0 40 38" xmlns="http://www.w3.org/2000/svg" xmlns:xlink="http://www.w3.org/1999/xlink" version="1.1">
<g id="group">
  <path id="Путь" d="M6.1 20.7 L6.2 18.4 C12.9 17.5 19.6 17 26.4 17.1 26.4 17.7 26.4 18.3 26.3 18.9 26.3 18.9 29.2 17.6 32.3 17.1 29.9 10.8 23.8 6.3 16.7 6.3 8.4 6.3 1.5 12.4 0.2 20.4 2.4 20.5 6.1 20.7 6.1 20.7 Z" fill="#fdc305" fill-opacity="1" stroke="none"/>
  <path id="Путь-1" d="M27.2 24.2 C26 25.5 25.8 25.4 25.8 27.7 L25.8 36.9 C30.3 33.9 33.2 28.8 33.2 23 33.2 21.9 33.1 20.9 32.9 19.9 31.2 21 28.2 23.1 27.2 24.2 Z" fill="#fdc305" fill-opacity="1" stroke="none"/>
  <path id="Путь-2" d="M6.4 25.7 C6.4 25.7 2.6 24.3 1.2 23.9 0.8 23.8 0.4 23.7 0 23.6 0.2 29.6 3.7 34.9 8.7 37.6 Z" fill="#fdc305" fill-opacity="1" stroke="none"/>
</g>
<path id="Путь-3" d="M26.3 17.1 C26.4 8.6 24.9 0.6 24.9 0.6 24.9 0.6 24.7 -0.6 24 0.4 23.3 1.5 22.8 4.3 22.8 4.3 15.4 3.9 10 4.6 10 4.6 9.2 2 7.9 0.8 7.2 1 6.5 1.3 6.5 4.4 6.5 4.4 L6.1 18.5 C12.8 17.5 19.6 17.1 26.3 17.1 Z" fill="#f06351" fill-opacity="1" stroke="none"/>
<path id="Путь-4" d="M12.4 14 C12.4 13.9 13.4 14.7 13.8 14.9 14.2 15.1 14.4 15.3 14.4 15.5 14.4 15.7 14.1 15.8 13.8 15.8 13.5 15.8 12.9 15.7 12.8 15.5 L13.7 15.5 14 15.5 C14.1 15.6 12.7 14.5 12.4 14 Z" fill="#000000" fill-opacity="1" stroke="none"/>
<path id="Путь-5" d="M19.9 14.1 C19.9 14.1 18.9 15.4 18.8 15.4 18.8 15.5 18.6 15.7 19 15.7 19.4 15.7 20.1 15.5 20.2 15.4 20.3 15.3 20.3 15.2 20.1 15.2 19.9 15.2 19.4 15.2 19.1 15.3 L19.9 14.1 C19.9 14.1 20 14 19.9 14.1 Z" fill="#000000" fill-opacity="1" stroke="none"/>
<path id="Путь-6" d="M16.8 20.2 C16.8 20.2 17.6 19.8 17.9 19.2 18.2 18.5 17.9 18.3 17.5 18.2 17 18.1 16.2 18.2 15.8 18.5 15.4 18.9 15.5 19.2 15.7 19.5 15.9 19.7 16.5 20.1 16.8 20.2 Z" fill="#000000" fill-opacity="1" stroke="none"/>
<path id="Путь-7" d="M16.3 21.5 C16.3 21.5 16.1 21.9 15.8 22.1 15.6 22.3 15.2 22.5 14.8 22.5 14.2 22.5 13.7 22.3 13.3 22.1 13.1 22 12.9 21.8 12.8 21.7 12.6 21.5 12.4 21.4 12.4 21.4 12.4 21.4 13.1 25.5 15 26.1 16.8 26.7 17.1 25.4 17.2 25 17.2 24.7 17.2 22.9 16.4 21.8 16.5 21.4 16.4 21.6 16.3 21.5 Z" fill="#f06351" fill-opacity="1" stroke="none"/>
<g id="group-1">
  <path id="Путь-8" d="M14.7 22.6 C13.4 22.6 12.4 21.2 12.4 21.2 12.4 21.1 12.4 21 12.4 21 L12.6 21 C12.6 21 13.6 22.3 14.7 22.3 15.3 22.3 15.8 22 16.3 21.3 L16.4 21.1 16.5 21.3 C16.5 21.3 16.9 22.1 17.5 22.1 18 22.1 18.6 21.7 19.1 20.8 19.1 20.7 19.2 20.7 19.3 20.8 19.4 20.8 19.4 20.9 19.3 21 18.7 22 18 22.4 17.4 22.4 16.8 22.4 16.5 21.9 16.3 21.6 15.9 22.3 15.3 22.6 14.7 22.6 Z" fill="#000000" fill-opacity="1" stroke="none"/>
</g>
</svg>
