<?xml version="1.0" encoding="UTF-8"?>
<svg width="108px" height="38px" viewBox="0 0 108 38" xmlns="http://www.w3.org/2000/svg" xmlns:xlink="http://www.w3.org/1999/xlink" version="1.1">
 <!-- Generated by Pixelmator Pro 1.6.2 -->
 <g id="group">
  <path id="Путь" d="M8.2 29.8 C7.4 28.8 7 27.3 7 25.4 L7 19.1 C7 17.2 7.4 15.7 8.2 14.7 9 13.7 10.4 13.2 12.4 13.2 14.3 13.2 15.6 13.6 16.4 14.5 17.2 15.4 17.6 16.6 17.6 18.3 L17.6 19.8 13.6 19.8 13.6 18 C13.6 17.3 13.5 16.8 13.4 16.4 13.3 16.1 12.9 15.9 12.4 15.9 11.9 15.9 11.4 16.1 11.3 16.5 11.1 16.9 11 17.4 11 18.1 L11 26.4 C11 27.1 11.1 27.6 11.3 28 11.5 28.4 11.8 28.6 12.4 28.6 12.9 28.6 13.3 28.4 13.4 28 13.6 27.6 13.6 27.1 13.6 26.4 L13.6 24.6 17.5 24.6 17.5 26.1 C17.5 27.7 17.1 29 16.3 30 15.5 30.9 14.2 31.4 12.3 31.4 10.4 31.3 9 30.8 8.2 29.8 Z" fill="#111111" fill-opacity="1" stroke="none"/>
  <path id="Путь-1" d="M22.2 13.4 L26.7 13.4 30 31 26.4 31 25.8 27.3 23.2 27.3 22.6 31 18.9 31 Z M25.4 25 L24.5 18.1 23.6 25 Z" fill="#111111" fill-opacity="1" stroke="none"/>
  <path id="Путь-2" d="M32.8 16.3 L30.1 16.3 30.1 13.4 39.4 13.4 39.4 16.3 36.7 16.3 36.7 31 32.7 31 32.7 16.3 Z" fill="#111111" fill-opacity="1" stroke="none"/>
  <path id="Путь-3" d="M46.5 13.4 L53.4 13.4 53.4 15.2 49 15.2 49 21 52.6 21 52.6 22.7 49 22.7 49 29.1 53.5 29.1 53.5 30.9 46.5 30.9 Z" fill="#111111" fill-opacity="1" stroke="none"/>
  <path id="Путь-4" d="M55.5 13.4 L57.2 13.4 62.3 25.1 62.3 13.4 64.4 13.4 64.4 31 62.8 31 57.7 19 57.7 31 55.6 31 55.6 13.4 Z" fill="#111111" fill-opacity="1" stroke="none"/>
  <path id="Путь-5" d="M66.8 13.4 L73.7 13.4 73.7 15.2 69.3 15.2 69.3 21 72.9 21 72.9 22.7 69.3 22.7 69.3 29.1 73.8 29.1 73.8 30.9 66.8 30.9 Z" fill="#111111" fill-opacity="1" stroke="none"/>
  <path id="Путь-6" d="M75.8 13.4 L79.4 13.4 C81.2 13.4 82.5 13.8 83.4 14.5 84.3 15.2 84.7 16.4 84.7 18.1 84.7 20.4 84 21.7 82.5 22.2 L85 31 82.6 31 80.3 22.7 78.4 22.7 78.4 31 75.9 31 Z M79.2 21 C80.3 21 81 20.8 81.5 20.4 82 20 82.2 19.2 82.2 18.1 82.2 17.4 82.1 16.8 82 16.4 81.9 16 81.6 15.7 81.1 15.5 80.7 15.3 80.1 15.2 79.4 15.2 L78.3 15.2 78.3 21 Z" fill="#111111" fill-opacity="1" stroke="none"/>
  <path id="Путь-7" d="M87.8 29.7 C87.1 28.7 86.7 27.2 86.7 25.2 L86.7 19.4 C86.7 18 86.8 16.9 87.1 16 87.4 15.1 87.9 14.5 88.6 14 89.3 13.5 90.3 13.3 91.5 13.3 93.1 13.3 94.3 13.7 95.1 14.5 95.8 15.3 96.2 16.6 96.2 18.4 L96.2 19.1 93.9 19.1 93.9 18.5 C93.9 17.7 93.8 17 93.7 16.6 93.6 16.1 93.4 15.8 93 15.6 92.7 15.3 92.2 15.2 91.6 15.2 90.9 15.2 90.4 15.4 90.1 15.7 89.8 16 89.5 16.4 89.4 16.9 89.3 17.4 89.3 18.1 89.3 19 L89.3 25.5 C89.3 26.8 89.5 27.8 89.8 28.4 90.1 29 90.8 29.3 91.7 29.3 92.6 29.3 93.3 29 93.6 28.3 93.9 27.7 94.1 26.6 94.1 25.2 L94.1 24 91.8 24 91.8 22.3 96.3 22.3 96.3 31 94.7 31 94.5 29 C93.9 30.5 92.9 31.2 91.3 31.2 89.7 31.2 88.5 30.7 87.8 29.7 Z" fill="#111111" fill-opacity="1" stroke="none"/>
  <path id="Путь-8" d="M101.3 24.8 L97.4 13.4 99.7 13.4 102.4 21.9 105.1 13.4 107.4 13.4 103.6 24.8 103.6 31 101.2 31 101.2 24.8 Z" fill="#111111" fill-opacity="1" stroke="none"/>
 </g>
</svg>
